<?xml version="1.0" encoding="UTF-8" standalone="no"?>
<!-- Created with Inkscape (http://www.inkscape.org/) -->

<svg
   xmlns:dc="http://purl.org/dc/elements/1.1/"
   xmlns:cc="http://creativecommons.org/ns#"
   xmlns:rdf="http://www.w3.org/1999/02/22-rdf-syntax-ns#"
   xmlns:svg="http://www.w3.org/2000/svg"
   xmlns="http://www.w3.org/2000/svg"
   xmlns:sodipodi="http://sodipodi.sourceforge.net/DTD/sodipodi-0.dtd"
   xmlns:inkscape="http://www.inkscape.org/namespaces/inkscape"
   width="32"
   height="32"
   viewBox="0 0 8.4666666 8.4666666"
   version="1.1"
   id="svg8"
   inkscape:version="0.92.3 (2405546, 2018-03-11)"
   sodipodi:docname="atualizar.svg">
  <defs
     id="defs2" />
  <sodipodi:namedview
     id="base"
     pagecolor="#ffffff"
     bordercolor="#666666"
     borderopacity="1.0"
     inkscape:pageopacity="0.0"
     inkscape:pageshadow="2"
     inkscape:zoom="12.998047"
     inkscape:cx="-0.24574908"
     inkscape:cy="10.642188"
     inkscape:document-units="px"
     inkscape:current-layer="layer1"
     showgrid="false"
     units="px"
     showguides="false"
     inkscape:guide-bbox="true"
     inkscape:window-width="1920"
     inkscape:window-height="1025"
     inkscape:window-x="0"
     inkscape:window-y="0"
     inkscape:window-maximized="1">
    <sodipodi:guide
       position="131.86592,100.14346"
       orientation="1,0"
       id="guide815"
       inkscape:locked="false" />
    <sodipodi:guide
       position="-289.72218,4.226461"
       orientation="0,1"
       id="guide817"
       inkscape:locked="false" />
    <sodipodi:guide
       position="4.1987101,2.1058146"
       orientation="1,0"
       id="guide819"
       inkscape:locked="false" />
    <sodipodi:guide
       position="263.73185,153.63624"
       orientation="1,0"
       id="guide821"
       inkscape:locked="false" />
  </sodipodi:namedview>
  <metadata
     id="metadata5">
    <rdf:RDF>
      <cc:Work
         rdf:about="">
        <dc:format>image/svg+xml</dc:format>
        <dc:type
           rdf:resource="http://purl.org/dc/dcmitype/StillImage" />
        <dc:title />
      </cc:Work>
    </rdf:RDF>
  </metadata>
  <g
     inkscape:label="Camada 1"
     inkscape:groupmode="layer"
     id="layer1"
     transform="translate(0,-288.53333)">
    <path
       style="fill:#4d4d4d;stroke:none;stroke-width:0.05;stroke-linecap:butt;stroke-linejoin:miter;stroke-miterlimit:4;stroke-dasharray:none;stroke-opacity:1"
       d="m 5.1135092,291.70651 -0.4275987,0.34768 c -0.026322,0.006 -0.081623,0.12455 -0.010256,0.14738 0.023429,0.0119 1.5624925,0.56033 1.5624925,0.56033 0.1349369,0.0652 0.1824671,0.0102 0.1757252,-0.13034 v -1.726 c -0.056623,-0.12284 -0.1132452,-0.0723 -0.1698672,-0.0498 l -0.3631661,0.27941 c -0.4001308,-0.3197 -0.7822137,-0.78306 -1.8758899,-0.63004 -1.1747411,0.16435 -1.7765224,1.05079 -1.8904933,1.95249 -0.1207902,0.95565 0.2521831,1.83286 1.0836404,2.37171 1.5905807,0.83861 2.5747509,-0.16135 2.9714765,-0.76917 0.026932,-0.0293 -0.050408,-0.0855 -0.100542,-0.13885 -0.07221,-0.0767 -0.2125751,-0.18809 -0.5665985,-0.42127 -0.02289,-0.0154 -0.051126,0.0235 -0.077014,0.0426 -0.4805138,0.6661 -1.3942496,0.95144 -2.0984547,0.15061 -0.3898555,-0.44338 -0.4338875,-1.1522 -0.017574,-1.73844 0.3774778,-0.52143 1.0244878,-0.77396 1.804117,-0.24834 z"
       id="path996"
       inkscape:connector-curvature="0"
       sodipodi:nodetypes="ccccccccssccsscsccc" />
  </g>
</svg>
