<?xml version="1.0" encoding="UTF-8" standalone="no"?>
<!-- Created with Inkscape (http://www.inkscape.org/) -->

<svg
   xmlns:dc="http://purl.org/dc/elements/1.1/"
   xmlns:cc="http://creativecommons.org/ns#"
   xmlns:rdf="http://www.w3.org/1999/02/22-rdf-syntax-ns#"
   xmlns:svg="http://www.w3.org/2000/svg"
   xmlns="http://www.w3.org/2000/svg"
   xmlns:sodipodi="http://sodipodi.sourceforge.net/DTD/sodipodi-0.dtd"
   xmlns:inkscape="http://www.inkscape.org/namespaces/inkscape"
   width="16"
   height="16"
   viewBox="0 0 4.2333332 4.2333332"
   version="1.1"
   id="svg8"
   inkscape:version="0.92.3 (2405546, 2018-03-11)"
   sodipodi:docname="redessociais.svg">
  <defs
     id="defs2" />
  <sodipodi:namedview
     id="base"
     pagecolor="#ffffff"
     bordercolor="#666666"
     borderopacity="1.0"
     inkscape:pageopacity="0.0"
     inkscape:pageshadow="2"
     inkscape:zoom="9.7227182"
     inkscape:cx="-14.482872"
     inkscape:cy="-32.32063"
     inkscape:document-units="px"
     inkscape:current-layer="layer1"
     showgrid="false"
     units="px"
     showguides="true"
     inkscape:guide-bbox="true"
     inkscape:window-width="1920"
     inkscape:window-height="1025"
     inkscape:window-x="0"
     inkscape:window-y="0"
     inkscape:window-maximized="1">
    <sodipodi:guide
       position="2.1193638,2.4847713"
       orientation="1,0"
       id="guide817"
       inkscape:locked="false" />
    <sodipodi:guide
       position="-0.78562623,2.1102286"
       orientation="0,1"
       id="guide819"
       inkscape:locked="false" />
  </sodipodi:namedview>
  <metadata
     id="metadata5">
    <rdf:RDF>
      <cc:Work
         rdf:about="">
        <dc:format>image/svg+xml</dc:format>
        <dc:type
           rdf:resource="http://purl.org/dc/dcmitype/StillImage" />
        <dc:title></dc:title>
      </cc:Work>
    </rdf:RDF>
  </metadata>
  <g
     inkscape:label="Camada 1"
     inkscape:groupmode="layer"
     id="layer1"
     transform="translate(0,-292.76667)">
    <g
       transform="matrix(1.2066316,0,0,1.2030259,-0.48502601,-60.229681)"
       id="layer1-6"
       inkscape:label="Camada 1" />
    <g
       id="g996"
       transform="matrix(0.13135744,0,0,0.13135744,6.478971,255.62564)">
      <rect
         ry="6.0803814"
         y="287.89273"
         x="-43.861237"
         height="20.860386"
         width="21.047476"
         id="rect931-9"
         style="opacity:1;fill:none;fill-opacity:1;stroke:#333333;stroke-width:0.63499999;stroke-miterlimit:4;stroke-dasharray:none;stroke-opacity:1" />
      <path
         sodipodi:nodetypes="ccccccccccccccccc"
         inkscape:connector-curvature="0"
         id="path971"
         d="m -27.591652,293.41287 -0.236278,2.40294 -1.782311,0.005 c -0.702273,0.0192 -0.84185,0.82826 -0.836378,1.45768 l -0.0054,1.54002 2.784803,-0.011 -0.556755,2.64931 -2.218884,0.007 -0.0237,7.26763 -2.734649,-0.004 0.04268,-7.29133 -2.293384,-0.002 0.05184,-2.52352 h 2.211181 l 0.04202,-2.71675 c 0.04394,-1.30782 0.902818,-2.72565 2.314048,-2.81268 z"
         style="fill:#333333;stroke:none;stroke-width:0.207348px;stroke-linecap:butt;stroke-linejoin:miter;stroke-opacity:1" />
    </g>
    <g
       id="g992"
       transform="matrix(0.13135744,0,0,0.13135744,5.3668111,258.90999)">
      <rect
         ry="6.0803814"
         y="262.88962"
         x="-5.4966545"
         height="20.860386"
         width="21.047476"
         id="rect931-9-7"
         style="opacity:1;fill:none;fill-opacity:1;stroke:#333333;stroke-width:0.63499999;stroke-miterlimit:4;stroke-dasharray:none;stroke-opacity:1" />
      <path
         sodipodi:nodetypes="ccccccsccccccccc"
         inkscape:connector-curvature="0"
         id="path988"
         d="m -0.39646625,277.44791 c 4.89794795,2.94974 10.90878425,-0.5758 10.72083625,-6.30499 0.456011,-0.38263 1.056549,-0.68267 1.227938,-1.22794 l -1.346008,0.37783 1.119893,-1.21362 c -0.188579,-0.10588 -0.992765,0.26705 -1.537786,0.4384 -0.9454371,-0.74689 -1.9093258,-0.93883 -2.7126988,-0.71633 -0.9601416,0.2659 -1.9588903,1.08349 -1.9269321,2.92508 -2.7932686,-0.42284 -3.6887305,-1.54443 -4.86043117,-2.48436 -0.34814289,1.0704 -0.37516963,2.24904 1.07982727,3.44169 L 0.02858891,272.2264 c -0.2321776,0.98123 0.59982932,1.8658 2.06791889,2.53725 l -1.45985377,-0.16127 c 0.58630427,1.1535 2.00427117,1.97591 2.99985877,1.90157 -1.1728376,1.06858 -2.86014157,0.84377 -4.03297905,0.94394 z"
         style="fill:#333333;stroke:none;stroke-width:0.13358197px;stroke-linecap:butt;stroke-linejoin:miter;stroke-opacity:1" />
    </g>
    <g
       id="g1009"
       transform="matrix(0.13135744,0,0,0.13135744,13.429969,234.00804)">
      <rect
         ry="5.1191988"
         y="453.56479"
         x="-37.729752"
         height="18.883228"
         width="27.678286"
         id="rect1003"
         style="opacity:1;fill:none;fill-opacity:1;stroke:#333333;stroke-width:0.65215123;stroke-miterlimit:4;stroke-dasharray:none;stroke-opacity:1" />
      <path
         inkscape:connector-curvature="0"
         id="path1005"
         d="m -26.739912,458.7927 0.06615,8.33438 7.14375,-4.06797 z"
         style="fill:#333333;stroke:#333333;stroke-width:0.26458332px;stroke-linecap:butt;stroke-linejoin:miter;stroke-opacity:1" />
    </g>
    <ellipse
       style="opacity:1;vector-effect:none;fill:#333333;fill-opacity:1;fill-rule:evenodd;stroke:none;stroke-width:0.70015454;stroke-linecap:butt;stroke-linejoin:miter;stroke-miterlimit:4;stroke-dasharray:none;stroke-dashoffset:0;stroke-opacity:1"
       id="path824"
       cx="5.6867738"
       cy="298.81134"
       rx="0.89110577"
       ry="0.94202614" />
    <path
       style="fill:#333333;fill-opacity:1;stroke:none;stroke-width:0.07001545;stroke-linecap:butt;stroke-linejoin:miter;stroke-miterlimit:4;stroke-dasharray:none;stroke-opacity:1"
       d="m 4.8422212,298.98733 c -0.015243,0.1257 0.051954,0.25139 0.1053976,0.37699 l 0.739155,1.39841 0.7396546,-1.42027 c 0.07965,-0.12094 0.088149,-0.24187 0.1109442,-0.3627 z"
       id="path826"
       inkscape:connector-curvature="0"
       sodipodi:nodetypes="cccccc" />
    <ellipse
       style="opacity:0;vector-effect:none;fill:#ffffff;fill-opacity:1;fill-rule:evenodd;stroke:none;stroke-width:0.70015454;stroke-linecap:butt;stroke-linejoin:miter;stroke-miterlimit:4;stroke-dasharray:none;stroke-dashoffset:0;stroke-opacity:1"
       id="path828"
       cx="5.5740929"
       cy="298.7872"
       rx="0.52208859"
       ry="0.43657413" />
    <ellipse
       style="opacity:1;vector-effect:none;fill:#ffffff;fill-opacity:1;fill-rule:evenodd;stroke:none;stroke-width:0.26968426;stroke-linecap:butt;stroke-linejoin:miter;stroke-miterlimit:4;stroke-dasharray:none;stroke-dashoffset:0;stroke-opacity:1"
       id="path824-3"
       cx="5.691112"
       cy="298.79166"
       rx="0.34323451"
       ry="0.36284789" />
  </g>
</svg>
