<?xml version="1.0" encoding="UTF-8" standalone="no"?>
<!-- Created with Inkscape (http://www.inkscape.org/) -->

<svg
   xmlns:dc="http://purl.org/dc/elements/1.1/"
   xmlns:cc="http://creativecommons.org/ns#"
   xmlns:rdf="http://www.w3.org/1999/02/22-rdf-syntax-ns#"
   xmlns:svg="http://www.w3.org/2000/svg"
   xmlns="http://www.w3.org/2000/svg"
   xmlns:sodipodi="http://sodipodi.sourceforge.net/DTD/sodipodi-0.dtd"
   xmlns:inkscape="http://www.inkscape.org/namespaces/inkscape"
   width="16"
   height="16"
   viewBox="0 0 4.2333332 4.2333332"
   version="1.1"
   id="svg8"
   inkscape:version="0.92.3 (2405546, 2018-03-11)"
   sodipodi:docname="twitter.svg">
  <defs
     id="defs2" />
  <sodipodi:namedview
     id="base"
     pagecolor="#ffffff"
     bordercolor="#666666"
     borderopacity="1.0"
     inkscape:pageopacity="0.0"
     inkscape:pageshadow="2"
     inkscape:zoom="54.9375"
     inkscape:cx="3.8188"
     inkscape:cy="5.4039057"
     inkscape:document-units="px"
     inkscape:current-layer="layer1"
     showgrid="false"
     units="px"
     showguides="true"
     inkscape:guide-bbox="true"
     inkscape:window-width="1920"
     inkscape:window-height="1025"
     inkscape:window-x="0"
     inkscape:window-y="0"
     inkscape:window-maximized="1">
    <sodipodi:guide
       position="2.1193638,2.4847713"
       orientation="1,0"
       id="guide817"
       inkscape:locked="false" />
    <sodipodi:guide
       position="-0.78562623,2.1102286"
       orientation="0,1"
       id="guide819"
       inkscape:locked="false" />
  </sodipodi:namedview>
  <metadata
     id="metadata5">
    <rdf:RDF>
      <cc:Work
         rdf:about="">
        <dc:format>image/svg+xml</dc:format>
        <dc:type
           rdf:resource="http://purl.org/dc/dcmitype/StillImage" />
        <dc:title />
      </cc:Work>
    </rdf:RDF>
  </metadata>
  <g
     inkscape:label="Camada 1"
     inkscape:groupmode="layer"
     id="layer1"
     transform="translate(0,-292.76667)">
    <g
       transform="matrix(1.2066316,0,0,1.2030259,-0.48502601,-60.229681)"
       id="layer1-6"
       inkscape:label="Camada 1" />
    <path
       style="fill:#333333;stroke:none;stroke-width:0.02442903px;stroke-linecap:butt;stroke-linejoin:miter;stroke-opacity:1"
       d="m 1.0831595,295.60152 c 0.89572,0.53944 1.9949616,-0.10528 1.9605903,-1.15305 0.083394,-0.07 0.1932181,-0.12493 0.2245611,-0.22455 l -0.2461534,0.069 0.2048022,-0.22196 c -0.034486,-0.0194 -0.1815535,0.0488 -0.2812251,0.0802 -0.1728982,-0.13658 -0.3491711,-0.17169 -0.4960891,-0.13101 -0.1755874,0.0486 -0.3582352,0.19813 -0.3523908,0.53492 -0.5108235,-0.0774 -0.6745826,-0.28245 -0.8888592,-0.45433 -0.063667,0.19575 -0.06861,0.41131 0.1974752,0.6294 l -0.2449786,-0.0837 c -0.04246,0.17943 0.1096947,0.3412 0.378174,0.46399 l -0.2669731,-0.0296 c 0.10722,0.21095 0.3665344,0.36136 0.548604,0.34775 -0.2144844,0.19543 -0.5230529,0.15431 -0.7375375,0.17262 z"
       id="path988"
       inkscape:connector-curvature="0"
       sodipodi:nodetypes="ccccccsccccccccc" />
  </g>
</svg>
